<?xml version="1.0" encoding="UTF-8"?>
<svg xmlns="http://www.w3.org/2000/svg" style="display: none;">
  <symbol viewBox="0 0 20 20" id="mora">
    <title>椭圆形备份</title>
    <defs>
      <linearGradient x1="20.7903655%" y1="9.47403999%" x2="84.0825664%" y2="84.2716315%" id="linearGradient-1">
        <stop stop-color="#FFF38D" offset="0%"></stop>
        <stop stop-color="#E2A220" offset="100%"></stop>
      </linearGradient>
      <circle id="path-2" cx="10" cy="10" r="10"></circle>
      <linearGradient x1="25.0705583%" y1="6.98485987%" x2="85.0102499%" y2="83.469824%" id="linearGradient-4">
        <stop stop-color="#FFE588" offset="0%"></stop>
        <stop stop-color="#EFB800" offset="100%"></stop>
      </linearGradient>
      <circle id="path-5" cx="10" cy="10" r="8.26086957"></circle>
      <filter x="-7.6%" y="-7.6%" width="115.1%" height="115.1%" filterUnits="objectBoundingBox" id="filter-6">
        <feGaussianBlur stdDeviation="0.5" in="SourceAlpha" result="shadowBlurInner1"></feGaussianBlur>
        <feOffset dx="0" dy="1" in="shadowBlurInner1" result="shadowOffsetInner1"></feOffset>
        <feComposite in="shadowOffsetInner1" in2="SourceAlpha" operator="arithmetic" k2="-1" k3="1" result="shadowInnerInner1"></feComposite>
        <feColorMatrix values="0 0 0 0 0.725854846   0 0 0 0 0.523589686   0 0 0 0 0.206401141  0 0 0 0.499808785 0" type="matrix" in="shadowInnerInner1"></feColorMatrix>
      </filter>
      <linearGradient x1="35.2886521%" y1="15.8792936%" x2="93.9342834%" y2="95.6433092%" id="linearGradient-7">
        <stop stop-color="#FFDAAA" offset="0%"></stop>
        <stop stop-color="#E8A30F" offset="100%"></stop>
      </linearGradient>
    </defs>
    <g id="领奖" stroke="none" stroke-width="1" fill="none" fill-rule="evenodd">
      <g id="排行榜" transform="translate(-218.000000, -32.000000)">
        <g id="编组-5" transform="translate(218.000000, 32.000000)">
          <g id="矩形">
            <mask id="mask-3" fill="white">
              <use xlink:href="#path-2"></use>
            </mask>
            <circle stroke="#FFFFFF" cx="10" cy="10" r="10.5"></circle>
          </g>
          <g id="椭圆形备份">
            <use fill="url(#linearGradient-4)" fill-rule="evenodd" xlink:href="#path-5"></use>
            <use fill="black" fill-opacity="1" filter="url(#filter-6)" xlink:href="#path-5"></use>
            <use stroke="#FFFFFF" stroke-width="0.5" xlink:href="#path-5"></use>
          </g>
          <path d="M9.93696809,1.59695194 C11.8778412,2.96589155 12.8644781,5.03785702 12.8644781,7.34706364 C12.8644781,8.02504504 12.7835922,8.68259966 12.6292207,9.30908344 C12.9107693,9.43421624 13.187619,9.58352628 13.4736329,9.75078406 C15.2276648,10.7765225 16.3657135,12.4681631 16.7552834,14.3286646 C14.807056,15.2818969 12.7640621,15.1383805 10.9882322,14.0998948 C10.6411942,13.8969508 10.3174513,13.6694214 10.0184197,13.4205247 C9.71221279,13.6695878 9.37838587,13.8855329 9.01182301,14.0998948 C7.25631409,15.126497 5.23925459,15.2785137 3.45236033,14.689538 C3.60841896,12.5068337 4.75218253,10.7883398 6.52642229,9.75078406 C6.88256958,9.54251307 7.24856171,9.36868952 7.62074981,9.22896919 L7.783,9.171 L7.70119927,8.98600598 C7.49172996,8.47529381 7.44780878,8.01451935 7.44063455,7.53001078 L7.43941517,7.34706364 C7.43941517,5.0639654 8.40402087,3.01232416 9.93696809,1.59695194 Z M11.9924917,11.0054557 L11.9245615,11.1342738 C11.7616358,11.4332132 11.5621903,11.7213966 11.2093541,12.0134349 L11.2093541,12.0134349 L11.19,12.028 L11.2299433,12.0597279 C11.380885,12.1735755 11.5398746,12.2798323 11.7069637,12.3775442 C12.6279416,12.9161219 13.6443139,13.1358462 14.4160343,13.4140476 C13.9789554,12.5221733 13.2847063,11.7444744 11.9924917,11.0054557 L11.9924917,11.0054557 Z M8.14118529,10.9854195 C7.97464098,11.0588907 7.81043058,11.1425671 7.64925314,11.2368219 C6.84884899,11.7048894 6.21825752,12.3565447 5.78900087,13.1098248 C6.64670001,13.099096 7.51373496,12.8717876 8.30954376,12.4064074 C8.47984896,12.3068149 8.64037916,12.203199 8.79281584,12.0924343 C8.54459556,11.7413769 8.33013367,11.3698303 8.14118529,10.9854195 Z M10.1341761,4.68327714 C9.65028152,5.55315409 9.37729048,6.54942792 9.37729048,7.61113375 C9.37729048,8.00381094 9.40574582,8.3737592 9.47346959,8.7394914 L9.489,8.816 L9.61210708,8.80691614 C9.89913155,8.79085626 10.1860494,8.79364062 10.4713212,8.81512401 L10.7559873,8.84283503 C10.8435319,8.44672565 10.8903159,8.03482942 10.8903159,7.61113375 C10.8903159,6.54559137 10.6154355,5.54590905 10.1341761,4.68327714 Z" id="路径备份-6" stroke="#FFFFFF" stroke-width="0.5" fill="url(#linearGradient-7)"></path>
        </g>
      </g>
    </g>
  </symbol>
</svg>