<?xml version="1.0" encoding="UTF-8"?>
<svg xmlns="http://www.w3.org/2000/svg" style="display: none;">
  <symbol viewBox="0 0 24 24" id="mora">
      <g id="领奖" stroke="none" stroke-width="1" fill="none" fill-rule="evenodd">
         <g id="抽奖" transform="translate(-219.000000, -32.000000)" fill="#959595">
             <g id="mora备份-2" transform="translate(219.000000, 32.000000)">
                 <g id="矩形" transform="translate(2.000000, 2.000000)">
                    <path d="M10,0 C15.5228475,0 20,4.4771525 20,10 C20,15.5228475 15.5228475,20 10,20 C4.4771525,20 0,15.5228475 0,10 C0,4.4771525 4.4771525,0 10,0 Z M10,1.73913043 C5.43764772,1.73913043 1.73913043,5.43764772 1.73913043,10 C1.73913043,14.5623523 5.43764772,18.2608696 10,18.2608696 C14.5623523,18.2608696 18.2608696,14.5623523 18.2608696,10 C18.2608696,5.43764772 14.5623523,1.73913043 10,1.73913043 Z" id="形状"></path>
                    <path d="M10.1520075,1.73913043 C11.6622858,3.11052152 12.6144781,5.11466364 12.6144781,7.34706364 C12.6144781,8.07912631 12.5173139,8.78664312 12.3326004,9.45535012 C12.6743863,9.59121226 13.0039843,9.76574821 13.3474308,9.96659194 C15.0383704,10.9554346 16.1350588,12.5864449 16.51059,14.3799009 L16.5217391,14.4346201 C14.7876858,15.0223064 12.8225249,14.8829594 11.1144342,13.884087 C10.7170482,13.6517 10.3512885,13.3859406 10.0194959,13.0918189 C9.68057488,13.3920512 9.30503315,13.6388193 8.88562095,13.884087 C7.19468142,14.8729297 5.25180819,15.0194214 3.53062089,14.4521032 L3.47826087,14.4345233 C3.84281024,12.6195975 4.9445337,10.9654644 6.65262435,9.96659194 C8.00787832,9.17405443 9.51108399,8.89826212 10.9459041,9.1212885 C11.0720455,8.63970751 11.1403159,8.13402976 11.1403159,7.61113375 C11.1403159,6.34868121 10.7696353,5.1750876 10.1338878,4.19875026 L10.1247883,4.21250476 C9.49450117,5.1861014 9.12729048,6.35460402 9.12729048,7.61113375 C9.12729048,8.12255375 9.17412598,8.59688965 9.28877108,9.07193883 C9.15227601,9.08394658 8.20440129,9.23085589 7.9144428,9.35596531 C7.732791,8.70254069 7.68941517,8.06051628 7.68941517,7.34706364 C7.68941517,5.1370794 8.62258128,3.15079213 10.1065604,1.78063226 L10.1520075,1.73913043 Z M8.29026013,10.6550946 L8.26480984,10.663727 C8.01251636,10.76116 7.76454492,10.8797911 7.52305108,11.021014 C6.55710261,11.58589 5.82720792,12.4058535 5.36842105,13.3483956 L5.3830708,13.3494792 C6.41377382,13.415193 7.4743291,13.1844412 8.43574582,12.6222153 C8.68940655,12.4738773 8.9222206,12.3168573 9.13947546,12.1420038 C8.78944841,11.6833918 8.50518039,11.184001 8.29026013,10.6550946 Z M9.50038237,10.3531159 L9.44726469,10.2493465 C9.90604924,11.1919216 10.6147863,12.0284604 11.5807616,12.593352 C12.5467101,13.158228 13.6127339,13.3884977 14.6480097,13.3196669 L14.6416113,13.3062746 C14.1824457,12.3693021 13.4548731,11.5543766 12.4934564,10.9921507 C12.2875232,10.8717233 12.0835675,10.7662095 11.8759876,10.6755757 C11.641539,11.1740684 11.3525581,11.6385064 11.0155113,12.0642026 C10.8103292,11.9121016 10.6478932,11.7799722 10.5172366,11.6140938 C10.3614452,11.416305 10.2116352,11.1977247 10.1410891,11.0120905 L10.1065604,11.0120905 C10.2512495,10.7898945 10.3836224,10.5580776 10.5017912,10.3176463 L10.5939462,10.3215488 C10.2316564,10.2974559 9.86516453,10.3067042 9.50038237,10.3531159 Z" id="路径备份-6"></path>
                </g>
            </g>
        </g>
    </g>
  </symbol>
</svg>